<svg height="500" preserveAspectRatio="xMidYMid meet" version="1.0" viewBox="0 0 375 374.999991"
     width="500" xmlns="http://www.w3.org/2000/svg" zoomAndPan="magnify">
  <defs>
    <g/>
    <clipPath id="d2f5287d80">
      <path
        clip-rule="nonzero"
        d="M 118.128906 99.101562 L 256.878906 99.101562 L 256.878906 237.851562 L 118.128906 237.851562 Z M 118.128906 99.101562 "/>
    </clipPath>
  </defs>
  <rect fill="#ffffff" fill-opacity="1" height="449.999989" width="450" x="-37.5" y="-37.499999"/>
  <rect fill="#000000" fill-opacity="1" height="449.999989" width="450" x="-37.5" y="-37.499999"/>
  <g clip-path="url(#d2f5287d80)">
    <path d="M 253.9375 191.644531 C 252.484375 191.644531 251.308594 190.46875 251.308594 189.015625 L 251.308594 108.34375 L 206.667969 152.984375 C 205.640625 154.011719 203.972656 154.011719 202.945312 152.984375 C 201.921875 151.957031 201.921875 150.292969 202.945312 149.265625 L 252.078125 100.136719 C 252.828125 99.382812 253.960938 99.15625 254.945312 99.566406 C 255.925781 99.972656 256.566406 100.929688 256.566406 101.996094 L 256.566406 189.015625 C 256.566406 190.46875 255.390625 191.644531 253.9375 191.644531 Z M 121.074219 237.488281 C 119.621094 237.488281 118.441406 236.3125 118.441406 234.859375 L 118.441406 143.171875 C 118.441406 142.109375 119.082031 141.148438 120.066406 140.742188 C 121.050781 140.335938 122.179688 140.558594 122.933594 141.3125 L 168.777344 187.15625 C 169.804688 188.183594 169.804688 189.847656 168.777344 190.875 C 167.75 191.902344 166.082031 191.902344 165.054688 190.875 L 123.703125 149.519531 L 123.703125 234.859375 C 123.703125 236.3125 122.523438 237.488281 121.074219 237.488281 Z M 253.9375 237.488281 C 253.265625 237.488281 252.589844 237.230469 252.078125 236.71875 L 119.214844 103.851562 C 118.1875 102.828125 118.1875 101.160156 119.214844 100.136719 C 120.242188 99.109375 121.90625 99.109375 122.933594 100.136719 L 255.796875 233 C 256.824219 234.027344 256.824219 235.691406 255.796875 236.71875 C 255.28125 237.230469 254.609375 237.488281 253.9375 237.488281 "
          fill="#ffffff"
          fill-opacity="1" fill-rule="nonzero"/>
  </g>
  <g fill="#fffbfa" fill-opacity="1">
    <g transform="translate(140.099967, 261.54845)">
      <g>
        <path
          d="M 3.5 0 C 3.683594 0 3.777344 -0.09375 3.777344 -0.28125 L 3.777344 -4.046875 L 6.144531 -1.285156 C 6.273438 -1.132812 6.410156 -1.132812 6.53125 -1.285156 L 8.929688 -4.074219 L 8.929688 -0.28125 C 8.929688 -0.09375 9.027344 0 9.210938 0 L 11.378906 0 C 11.5625 0 11.65625 -0.09375 11.65625 -0.28125 L 11.65625 -10.257812 C 11.65625 -10.777344 11.296875 -10.898438 10.972656 -10.496094 L 6.339844 -4.703125 L 1.734375 -10.496094 C 1.402344 -10.921875 1.050781 -10.777344 1.050781 -10.257812 L 1.050781 -0.28125 C 1.050781 -0.09375 1.148438 0 1.332031 0 Z M 3.5 0 "/>
      </g>
    </g>
  </g>
  <g fill="#fffbfa" fill-opacity="1">
    <g transform="translate(164.007975, 261.54845)">
      <g>
        <path
          d="M 6.300781 0.28125 C 9.722656 0.28125 12.007812 -1.871094 12.007812 -5.25 C 12.007812 -8.625 9.722656 -10.777344 6.300781 -10.777344 C 2.882812 -10.777344 0.613281 -8.625 0.613281 -5.25 C 0.613281 -1.871094 2.882812 0.28125 6.300781 0.28125 Z M 6.300781 -2.242188 C 4.566406 -2.242188 3.417969 -3.390625 3.417969 -5.25 C 3.417969 -7.105469 4.566406 -8.253906 6.300781 -8.253906 C 8.050781 -8.253906 9.210938 -7.105469 9.210938 -5.25 C 9.210938 -3.390625 8.050781 -2.242188 6.300781 -2.242188 Z M 6.300781 -2.242188 "/>
      </g>
    </g>
  </g>
  <g fill="#fffbfa" fill-opacity="1">
    <g transform="translate(187.84083, 261.54845)">
      <g>
        <path
          d="M 7.933594 -10.496094 C 7.785156 -10.496094 7.667969 -10.414062 7.613281 -10.269531 L 5.417969 -4.652344 L 3.21875 -10.269531 C 3.164062 -10.414062 3.046875 -10.496094 2.898438 -10.496094 L 0.429688 -10.496094 C 0.226562 -10.496094 0.121094 -10.359375 0.226562 -10.160156 L 5.035156 0 C 5.25 0.429688 5.582031 0.429688 5.792969 0 L 10.605469 -10.160156 C 10.707031 -10.359375 10.605469 -10.496094 10.402344 -10.496094 Z M 7.933594 -10.496094 "/>
      </g>
    </g>
  </g>
  <g fill="#fffbfa" fill-opacity="1">
    <g transform="translate(209.883666, 261.54845)">
      <g>
        <path
          d="M 3.554688 0 C 3.738281 0 3.832031 -0.09375 3.832031 -0.28125 L 3.832031 -10.214844 C 3.832031 -10.402344 3.738281 -10.496094 3.554688 -10.496094 L 1.320312 -10.496094 C 1.132812 -10.496094 1.039062 -10.402344 1.039062 -10.214844 L 1.039062 -0.28125 C 1.039062 -0.09375 1.132812 0 1.320312 0 Z M 3.554688 0 "/>
      </g>
    </g>
  </g>
  <g fill="#fffbfa" fill-opacity="1">
    <g transform="translate(225.955232, 261.54845)">
      <g>
        <path
          d="M 7.851562 0 C 8.035156 0 8.132812 -0.09375 8.132812 -0.28125 L 8.132812 -2.097656 C 8.132812 -2.28125 8.035156 -2.378906 7.851562 -2.378906 L 3.832031 -2.378906 L 3.832031 -3.609375 L 7.304688 -3.609375 C 7.488281 -3.609375 7.585938 -3.710938 7.585938 -3.886719 L 7.585938 -5.570312 C 7.585938 -5.753906 7.488281 -5.847656 7.304688 -5.847656 L 3.832031 -5.847656 L 3.832031 -8.117188 L 7.851562 -8.117188 C 8.035156 -8.117188 8.132812 -8.214844 8.132812 -8.398438 L 8.132812 -10.214844 C 8.132812 -10.402344 8.035156 -10.496094 7.851562 -10.496094 L 1.320312 -10.496094 C 1.132812 -10.496094 1.039062 -10.402344 1.039062 -10.214844 L 1.039062 -0.28125 C 1.039062 -0.09375 1.132812 0 1.320312 0 Z M 7.851562 0 "/>
      </g>
    </g>
  </g>
  <g fill="#fffbfa" fill-opacity="1">
    <g transform="translate(177.09641, 274.029634)">
      <g>
        <path
          d="M 4.089844 0 L 4.515625 0 L 4.515625 -4.898438 L 4.089844 -4.898438 L 4.089844 -2.703125 L 1.21875 -2.703125 L 1.21875 -4.898438 L 0.792969 -4.898438 L 0.792969 0 L 1.21875 0 L 1.21875 -2.296875 L 4.089844 -2.296875 Z M 4.089844 0 "/>
      </g>
    </g>
  </g>
  <g fill="#fffbfa" fill-opacity="1">
    <g transform="translate(185.202628, 274.029634)">
      <g>
        <path
          d="M 2.574219 0.0859375 C 3.722656 0.0859375 4.425781 -0.671875 4.425781 -1.933594 L 4.425781 -4.898438 L 4.003906 -4.898438 L 4.003906 -1.953125 C 4.003906 -0.910156 3.484375 -0.328125 2.574219 -0.328125 C 1.667969 -0.328125 1.148438 -0.910156 1.148438 -1.953125 L 1.148438 -4.898438 L 0.726562 -4.898438 L 0.726562 -1.933594 C 0.726562 -0.671875 1.429688 0.0859375 2.574219 0.0859375 Z M 2.574219 0.0859375 "/>
      </g>
    </g>
  </g>
  <g fill="#fffbfa" fill-opacity="1">
    <g transform="translate(193.154837, 274.029634)">
      <g>
        <path
          d="M 0.792969 0 L 2.730469 0 C 3.683594 0 4.277344 -0.511719 4.277344 -1.335938 C 4.277344 -1.933594 3.949219 -2.359375 3.382812 -2.527344 C 3.855469 -2.695312 4.136719 -3.09375 4.136719 -3.625 C 4.136719 -4.402344 3.554688 -4.898438 2.652344 -4.898438 L 0.792969 -4.898438 Z M 1.21875 -0.398438 L 1.21875 -2.304688 L 2.695312 -2.304688 C 3.421875 -2.304688 3.84375 -1.953125 3.84375 -1.351562 C 3.84375 -0.757812 3.421875 -0.398438 2.714844 -0.398438 Z M 1.21875 -2.695312 L 1.21875 -4.5 L 2.644531 -4.5 C 3.3125 -4.5 3.703125 -4.15625 3.703125 -3.597656 C 3.703125 -3.03125 3.3125 -2.695312 2.640625 -2.695312 Z M 1.21875 -2.695312 "/>
      </g>
    </g>
  </g>
</svg>
